{"title":"The.Comic.Strip.Complete.Collection.D7.DVDRip.x264.Iou1","uid":8565979,"size":1636731304,"categoryP":"video","categoryS":"tv_shows","magnet":"?xt=urn:btih:1c052b43ac2b254fcf57385cb23783161cd800a9&amp;dn=The.Comic.Strip.Complete.Collection.D7.DVDRip.x264.Iou1&amp;tr=udp%3A%2F%2Ftracker.openbittorrent.com%3A80&amp;tr=udp%3A%2F%2Fopen.demonii.com%3A1337&amp;tr=udp%3A%2F%2Ftracker.coppersurfer.tk%3A6969&amp;tr=udp%3A%2F%2Fexodus.desync.com%3A6969","seeders":0,"leechers":1,"uploader":"jaybee211","files":-1,"time":1371026884,"description":"Disc 7 Of 9\n\n28.Les Dogs                                      : 720x554 27m 31s\n29.Red Nose Of Courage                           : 720x554 50m 41s\n30.The Crying Game                               : 720x554 33m 42s \n31.Wild Turkey                                   : 720x554 27m 44s\n32.Detectives On The Edge Of A Nervous Breakdown : 720x552 31m 48s\n33.Space Virgins From Planet Sex                 : 720x562 31m 19s\n\nNote. Video/Audio Bitrate varies slightly in all 6 clips\n\nFormat                                   : MPEG-4\nFile size                                : 1.52 GiB\nDuration                                 : 3h 22mn 47s\nOverall bit rate mode                    : Variable\nOverall bit rate                         : 1 076 Kbps\n\nVideo\nFormat settings, CABAC                   : Yes\nFormat settings, ReFrames                : 1 frame\nCodec ID                                 : avc1\nDuration                                 : 3h 22mn 47s\nBit rate mode                            : Variable\nBit rate                                 : 999 Kbps\nFrame rate mode                          : Constant\nFrame rate                               : 25.000 fps\nBit depth                                : 8 bits\nScan type                                : Progressive\nBits/(Pixel*Frame)                       : 0.100\nStream size                              : 1.413 GiB (93%)\nWriting library                          : x264 core\n\nAudio\nFormat                                   : AAC\nDuration                                 : 3h 22mn 47s\nBit rate mode                            : Variable\nBit rate                                 : 72.4 Kbps\nMaximum bit rate                         : 84.6 Kbps\nChannel(s)                               : 2 channels\nChannel positions                        : Front: L R\nSampling rate                            : 48.0 KHz\nCompression mode                         : Lossy\nStream size                              : 107 MiB (7%)\nLanguage                                 : English\nSubtitles                                : None\n\nIMDB. &lt;a href=&quot; http://www.imdb.com/title/tt0083402/&quot; rel=&quot;nofollow&quot; target=&quot;_NEW&quot;&gt; http://www.imdb.com/title/tt0083402/&lt;/a&gt;\n\nScreens. &lt;a href=&quot; http://bayimg.com/bANggaAEd&quot; rel=&quot;nofollow&quot; target=&quot;_NEW&quot;&gt; http://bayimg.com/bANggaAEd&lt;/a&gt;\n\n         &lt;a href=&quot; http://bayimg.com/baNGHaAEd&quot; rel=&quot;nofollow&quot; target=&quot;_NEW&quot;&gt; http://bayimg.com/baNGHaAEd&lt;/a&gt;\n\n         &lt;a href=&quot; http://bayimg.com/BAnGJaaED&quot; rel=&quot;nofollow&quot; target=&quot;_NEW&quot;&gt; http://bayimg.com/BAnGJaaED&lt;/a&gt;\n\n         &lt;a href=&quot; http://bayimg.com/BanGkaaED&quot; rel=&quot;nofollow&quot; target=&quot;_NEW&quot;&gt; http://bayimg.com/BanGkaaED&lt;/a&gt;\n\n         &lt;a href=&quot; http://bayimg.com/bAnGlaaed&quot; rel=&quot;nofollow&quot; target=&quot;_NEW&quot;&gt; http://bayimg.com/bAnGlaaed&lt;/a&gt;\n\n         &lt;a href=&quot; http://bayimg.com/bANgMAAeD&quot; rel=&quot;nofollow&quot; target=&quot;_NEW&quot;&gt; http://bayimg.com/bANgMAAeD&lt;/a&gt;  \n\nEnjoy.","torrent":{"xt":"urn:btih:1c052b43ac2b254fcf57385cb23783161cd800a9","amp;dn":"The.Comic.Strip.Complete.Collection.D7.DVDRip.x264.Iou1","amp;tr":["udp%3A%2F%2Ftracker.openbittorrent.com%3A80","udp%3A%2F%2Fopen.demonii.com%3A1337","udp%3A%2F%2Ftracker.coppersurfer.tk%3A6969","udp%3A%2F%2Fexodus.desync.com%3A6969"],"infoHash":"1c052b43ac2b254fcf57385cb23783161cd800a9","infoHashBuffer":{"type":"Buffer","data":[28,5,43,67,172,43,37,79,207,87,56,92,178,55,131,22,28,216,0,169]},"announce":[],"urlList":[]}}